<svg version="1.2" xmlns="http://www.w3.org/2000/svg" viewBox="0 0 2400 570" width="2400" height="570">
	<title>526819-svg</title>
	<style>
		tspan { white-space:pre }
		.s0 { fill: #000000 }
		.t1 { font-size: 300px;fill: #000000;font-weight: 400;font-family: "StickNoBills-Regular", "Stick No Bills" }
	</style>
	<g id="Layer">
		<path id="Layer" class="s0" d="m343.1 34.8h16.3v16.3h-16.3z"/>
		<path id="Layer" class="s0" d="m343.1 459.6h16.3v16.3h-16.3z"/>
		<path id="Layer" class="s0" d="m501.4 93.6l11.5 11.5-11.5 11.6-11.5-11.6z"/>
		<path id="Layer" class="s0" d="m201 417.1l-11.5-11.6 11.5-11.5 11.6 11.5z"/>
		<path id="Layer" class="s0" d="m555.4 247.2h16.3v16.3h-16.3z"/>
		<path id="Layer" class="s0" d="m130.7 247.2h16.3v16.3h-16.3z"/>
		<path id="Layer" class="s0" d="m201.1 93.6l11.5 11.6-11.5 11.5-11.5-11.5z"/>
		<path id="Layer" fill-rule="evenodd" class="s0" d="m588.7 492.5c-11.2 11.2-26.3 17.4-42 17.4-1.1 0-2.2 0-3.3-0.1-16.8-0.9-32.5-9-43-22.2l-41.1-49.7-2.2 1.5c-14.4 8.3-29.2 14.7-44.5 19.3l-5 49.9h-112.8l-5-49.9c-13.4-4.1-26.5-9.5-38.9-16.2l-38.8 31.8-79.8-79.8 31.8-38.8c-6.7-12.4-12.1-25.4-16.2-38.9l-49.9-5v-112.8l49.9-5q6.2-20.3 16.2-39l-31.9-38.8 79.8-79.8 38.9 31.9c12.4-6.6 25.5-12 38.9-16.1l5-49.9h113l5 49.9c13.4 4 26.5 9.4 38.9 16.1l38.8-31.8 79.8 79.8-31.8 38.8c6.6 12.4 12 25.5 16.1 38.9l49.9 5v112.8l-49.9 5c-4.6 15.3-11 30-18.9 43.9l-1.7 2.4 49.8 41.1c13.1 10.5 21.2 26.2 22.1 43 0.9 16.9-5.4 33.4-17.2 45.3zm-139.7-67.3l-26.6-32.1c-22 11.4-46.4 17.4-71.1 17.4-85.6 0-155.2-69.6-155.2-155.2 0-85.6 69.6-155.2 155.2-155.2 85.6 0 155.2 69.6 155.2 155.2 0 24.5-6 48.8-17.2 70.7l32.1 26.6 0.4-0.6c7.8-13.8 14.2-29.1 18.5-45l1.5-5.4 46.3-4.6v-83.2l-46.3-4.6-1.5-5.4c-4.3-15.8-10.7-31.2-18.9-45.5l-2.8-4.9 29.5-36-58.9-58.9-36 29.5-4.9-2.8c-14.3-8.2-29.6-14.6-45.5-18.9l-5.4-1.5-4.6-46.3h-83.2l-4.6 46.3-5.4 1.5c-15.9 4.3-31.2 10.7-45.5 18.9l-4.9 2.8-36-29.5-58.9 58.9 29.5 36-2.8 4.9c-8.2 14.3-14.6 29.6-18.9 45.5l-1.5 5.4-46.3 4.6v83.2l46.3 4.6 1.5 5.4c4.4 15.9 10.7 31.2 18.9 45.5l2.8 4.9-29.5 36 58.9 58.9 36-29.5 4.9 2.8c14.3 8.2 29.6 14.6 45.5 18.9l5.4 1.5 4.7 46.3h83.2l4.6-46.3 5.4-1.5c15.9-4.4 31.2-10.7 45.5-18.9zm27.5-109.9c9-18.7 13.7-39.3 13.7-60 0-76.6-62.3-138.9-138.9-138.9-76.6 0-138.9 62.3-138.9 138.9 0 76.6 62.3 138.9 138.9 138.9 20.9 0 41.6-4.8 60.4-13.9l-30.2-36.5c-2.9 0.9-5.9 1.6-8.8 2.2-4.4 0.9-8.9 1.6-13.3 1.9-22.2 1.2-44.4-5.7-61.9-20.1-2.3-2-4.5-3.9-6.6-6-22.5-22.5-31.4-55.7-23.2-86.7l3.6-13.7 56.1 56.1 31.6-13.2 14.5-33.2-56-56 13.7-3.7c30.9-8.3 64.1 0.6 86.7 23.2q4.2 4.4 7.8 9c0.2 0.2 0.3 0.4 0.5 0.6 2.2 3 4.3 6.2 6.1 9.4 0.3 0.3 0.5 0.7 0.7 1.1 1.7 3.2 3.3 6.5 4.6 9.8q0.3 0.7 0.6 1.5c1.3 3.3 2.3 6.7 3.2 10.1 0.1 0.6 0.3 1.1 0.4 1.7 0.8 3.5 1.4 6.9 1.8 10.4 0.1 0.6 0.1 1.1 0.2 1.7 0.4 3.5 0.5 7.1 0.4 10.6 0 0.5-0.1 1.1-0.1 1.6-0.2 3.6-0.5 7.2-1.1 10.8 0 0.4-0.1 0.9-0.2 1.3-0.7 3.7-1.6 7.4-2.7 11-0.1 0-0.1 0.1-0.1 0.2zm113.3 132.8c-0.7-12.2-6.6-23.6-16.1-31.2l-92.4-76.4-60.5-50 2.1-5.5c10.6-27.3 4.2-58.2-16.4-78.8-14.9-14.8-35.3-22.4-56-21.3l42.6 42.6-21.7 49.3-47.7 19.9-42.5-42.5c-0.7 13.6 2.4 27.2 8.9 39.1 3.3 6.1 7.4 11.8 12.4 16.8 1.7 1.7 3.6 3.4 5.5 5 20.2 16.7 48.3 21.1 73.2 11.4l5.5-2.1 50.1 60.6 59.9 72.5 16.3 19.7c7.7 9.7 19.1 15.5 31.3 16.2 12.2 0.7 24.2-3.9 32.8-12.5 8.6-8.6 13.2-20.6 12.7-32.8z"/>
		<path id="Layer" fill-rule="evenodd" class="s0" d="m572.1 449.7c0 14-11.4 25.3-25.3 25.3-14 0-25.3-11.3-25.3-25.3 0-14 11.4-25.3 25.3-25.3 14 0 25.3 11.3 25.3 25.3zm-16.4 0c0-4.9-4-8.9-8.9-8.9-4.9 0-8.9 4-8.9 8.9 0 4.9 4 8.9 8.9 8.9 4.9 0 8.9-4 8.9-8.9z"/>
		<text id="SmartestAppes" style="transform: matrix(1,0,0,1,490.103,511.5)" >
			<tspan x="0" y="0" class="t1">S</tspan><tspan  y="0" class="t1">m</tspan><tspan  y="0" class="t1">a</tspan><tspan  y="0" class="t1">r</tspan><tspan  y="0" class="t1">t</tspan><tspan  y="0" class="t1">e</tspan><tspan  y="0" class="t1">s</tspan><tspan  y="0" class="t1">t</tspan><tspan  y="0" class="t1">A</tspan><tspan  y="0" class="t1">p</tspan><tspan  y="0" class="t1">p</tspan><tspan  y="0" class="t1">e</tspan><tspan  y="0" class="t1">s</tspan><tspan  y="0" class="t1">
</tspan>
		</text>
	</g>
</svg>
